# Tiled2Unity generated file. Do not modify by hand.
# Wavefront file for 'Overworld002_mesh_0002.obj'

# Vertices (Count = 408)
v 0 -1 0
v -1 -1 0
v -1 0 0
v 0 0 0
v -1 -1 0
v -2 -1 0
v -2 0 0
v -1 0 0
v -2 -1 0
v -3 -1 0
v -3 0 0
v -2 0 0
v -3 -1 0
v -4 -1 0
v -4 0 0
v -3 0 0
v -4 -1 0
v -5 -1 0
v -5 0 0
v -4 0 0
v -5 -1 0
v -6 -1 0
v -6 0 0
v -5 0 0
v -6 -1 0
v -7 -1 0
v -7 0 0
v -6 0 0
v -7 -1 0
v -8 -1 0
v -8 0 0
v -7 0 0
v -8 -1 0
v -9 -1 0
v -9 0 0
v -8 0 0
v -9 -1 0
v -10 -1 0
v -10 0 0
v -9 0 0
v -15 -1 0
v -16 -1 0
v -16 0 0
v -15 0 0
v -16 -1 0
v -17 -1 0
v -17 0 0
v -16 0 0
v -17 -1 0
v -18 -1 0
v -18 0 0
v -17 0 0
v -18 -1 0
v -19 -1 0
v -19 0 0
v -18 0 0
v -19 -1 0
v -20 -1 0
v -20 0 0
v -19 0 0
v -20 -1 0
v -21 -1 0
v -21 0 0
v -20 0 0
v -21 -1 0
v -22 -1 0
v -22 0 0
v -21 0 0
v -22 -1 0
v -23 -1 0
v -23 0 0
v -22 0 0
v -23 -1 0
v -24 -1 0
v -24 0 0
v -23 0 0
v -24 -1 0
v -25 -1 0
v -25 0 0
v -24 0 0
v 0 -2 0
v -1 -2 0
v -1 -1 0
v 0 -1 0
v -24 -2 0
v -25 -2 0
v -25 -1 0
v -24 -1 0
v 0 -3 0
v -1 -3 0
v -1 -2 0
v 0 -2 0
v -2 -3 0
v -3 -3 0
v -3 -2 0
v -2 -2 0
v -3 -3 0
v -4 -3 0
v -4 -2 0
v -3 -2 0
v -4 -3 0
v -5 -3 0
v -5 -2 0
v -4 -2 0
v -24 -3 0
v -25 -3 0
v -25 -2 0
v -24 -2 0
v 0 -4 0
v -1 -4 0
v -1 -3 0
v 0 -3 0
v -8 -4 0
v -9 -4 0
v -9 -3 0
v -8 -3 0
v -9 -4 0
v -10 -4 0
v -10 -3 0
v -9 -3 0
v -10 -4 0
v -11 -4 0
v -11 -3 0
v -10 -3 0
v -17 -4 0
v -18 -4 0
v -18 -3 0
v -17 -3 0
v -18 -4 0
v -19 -4 0
v -19 -3 0
v -18 -3 0
v -24 -4 0
v -25 -4 0
v -25 -3 0
v -24 -3 0
v 0 -5 0
v -1 -5 0
v -1 -4 0
v 0 -4 0
v -17 -5 0
v -18 -5 0
v -18 -4 0
v -17 -4 0
v -18 -5 0
v -19 -5 0
v -19 -4 0
v -18 -4 0
v -24 -5 0
v -25 -5 0
v -25 -4 0
v -24 -4 0
v 0 -6 0
v -1 -6 0
v -1 -5 0
v 0 -5 0
v -24 -6 0
v -25 -6 0
v -25 -5 0
v -24 -5 0
v 0 -7 0
v -1 -7 0
v -1 -6 0
v 0 -6 0
v -24 -7 0
v -25 -7 0
v -25 -6 0
v -24 -6 0
v 0 -8 0
v -1 -8 0
v -1 -7 0
v 0 -7 0
v -7 -8 0
v -8 -8 0
v -8 -7 0
v -7 -7 0
v -24 -8 0
v -25 -8 0
v -25 -7 0
v -24 -7 0
v 0 -9 0
v -1 -9 0
v -1 -8 0
v 0 -8 0
v -6 -9 0
v -7 -9 0
v -7 -8 0
v -6 -8 0
v -24 -9 0
v -25 -9 0
v -25 -8 0
v -24 -8 0
v 0 -10 0
v -1 -10 0
v -1 -9 0
v 0 -9 0
v -24 -10 0
v -25 -10 0
v -25 -9 0
v -24 -9 0
v -9 -11 0
v -10 -11 0
v -10 -10 0
v -9 -10 0
v -10 -11 0
v -11 -11 0
v -11 -10 0
v -10 -10 0
v -6 -12 0
v -7 -12 0
v -7 -11 0
v -6 -11 0
v -9 -12 0
v -10 -12 0
v -10 -11 0
v -9 -11 0
v -10 -12 0
v -11 -12 0
v -11 -11 0
v -10 -11 0
v 0 -16 0
v -1 -16 0
v -1 -15 0
v 0 -15 0
v -24 -16 0
v -25 -16 0
v -25 -15 0
v -24 -15 0
v 0 -17 0
v -1 -17 0
v -1 -16 0
v 0 -16 0
v -18 -17 0
v -19 -17 0
v -19 -16 0
v -18 -16 0
v -24 -17 0
v -25 -17 0
v -25 -16 0
v -24 -16 0
v 0 -18 0
v -1 -18 0
v -1 -17 0
v 0 -17 0
v -24 -18 0
v -25 -18 0
v -25 -17 0
v -24 -17 0
v 0 -19 0
v -1 -19 0
v -1 -18 0
v 0 -18 0
v -5 -19 0
v -6 -19 0
v -6 -18 0
v -5 -18 0
v -6 -19 0
v -7 -19 0
v -7 -18 0
v -6 -18 0
v -18 -19 0
v -19 -19 0
v -19 -18 0
v -18 -18 0
v -19 -19 0
v -20 -19 0
v -20 -18 0
v -19 -18 0
v -24 -19 0
v -25 -19 0
v -25 -18 0
v -24 -18 0
v 0 -20 0
v -1 -20 0
v -1 -19 0
v 0 -19 0
v -5 -20 0
v -6 -20 0
v -6 -19 0
v -5 -19 0
v -6 -20 0
v -7 -20 0
v -7 -19 0
v -6 -19 0
v -18 -20 0
v -19 -20 0
v -19 -19 0
v -18 -19 0
v -19 -20 0
v -20 -20 0
v -20 -19 0
v -19 -19 0
v -24 -20 0
v -25 -20 0
v -25 -19 0
v -24 -19 0
v 0 -21 0
v -1 -21 0
v -1 -20 0
v 0 -20 0
v -24 -21 0
v -25 -21 0
v -25 -20 0
v -24 -20 0
v 0 -22 0
v -1 -22 0
v -1 -21 0
v 0 -21 0
v -24 -22 0
v -25 -22 0
v -25 -21 0
v -24 -21 0
v 0 -23 0
v -1 -23 0
v -1 -22 0
v 0 -22 0
v -24 -23 0
v -25 -23 0
v -25 -22 0
v -24 -22 0
v 0 -24 0
v -1 -24 0
v -1 -23 0
v 0 -23 0
v -24 -24 0
v -25 -24 0
v -25 -23 0
v -24 -23 0
v 0 -25 0
v -1 -25 0
v -1 -24 0
v 0 -24 0
v -1 -25 0
v -2 -25 0
v -2 -24 0
v -1 -24 0
v -2 -25 0
v -3 -25 0
v -3 -24 0
v -2 -24 0
v -3 -25 0
v -4 -25 0
v -4 -24 0
v -3 -24 0
v -4 -25 0
v -5 -25 0
v -5 -24 0
v -4 -24 0
v -5 -25 0
v -6 -25 0
v -6 -24 0
v -5 -24 0
v -6 -25 0
v -7 -25 0
v -7 -24 0
v -6 -24 0
v -7 -25 0
v -8 -25 0
v -8 -24 0
v -7 -24 0
v -8 -25 0
v -9 -25 0
v -9 -24 0
v -8 -24 0
v -9 -25 0
v -10 -25 0
v -10 -24 0
v -9 -24 0
v -15 -25 0
v -16 -25 0
v -16 -24 0
v -15 -24 0
v -16 -25 0
v -17 -25 0
v -17 -24 0
v -16 -24 0
v -17 -25 0
v -18 -25 0
v -18 -24 0
v -17 -24 0
v -18 -25 0
v -19 -25 0
v -19 -24 0
v -18 -24 0
v -19 -25 0
v -20 -25 0
v -20 -24 0
v -19 -24 0
v -20 -25 0
v -21 -25 0
v -21 -24 0
v -20 -24 0
v -21 -25 0
v -22 -25 0
v -22 -24 0
v -21 -24 0
v -22 -25 0
v -23 -25 0
v -23 -24 0
v -22 -24 0
v -23 -25 0
v -24 -25 0
v -24 -24 0
v -23 -24 0
v -24 -25 0
v -25 -25 0
v -25 -24 0
v -24 -24 0

# Texture cooridinates (Count = 66)
vt 0.025 0.6111111
vt 0.05 0.6111111
vt 0.05 0.6388889
vt 0.025 0.6388889
vt 0.075 0.6111111
vt 0.075 0.6388889
vt 0.025 0.5277778
vt 0.05 0.5277778
vt 0.05 0.5555556
vt 0.025 0.5555556
vt 0 0.5277778
vt 0 0.5555556
vt 0.1 0.6111111
vt 0.1 0.6388889
vt 0.075 0.5833334
vt 0.1 0.5833334
vt 0.025 0.5833334
vt 0.05 0.5833334
vt 0.075 0.8333333
vt 0.1 0.8333333
vt 0.1 0.8611111
vt 0.075 0.8611111
vt 0.125 0.8333333
vt 0.125 0.8611111
vt 0.15 0.8333333
vt 0.15 0.8611111
vt 0.225 0.6666666
vt 0.25 0.6666666
vt 0.25 0.6944444
vt 0.225 0.6944444
vt 0.275 0.6666666
vt 0.275 0.6944444
vt 0.225 0.6388889
vt 0.25 0.6388889
vt 0.275 0.6388889
vt 0.3 0.6944444
vt 0.3 0.7222222
vt 0.275 0.7222222
vt 0 0.5833334
vt 0.1 0.9444444
vt 0.125 0.9444444
vt 0.125 0.9722222
vt 0.1 0.9722222
vt 0.15 0.9444444
vt 0.15 0.9722222
vt 0.325 0.6944444
vt 0.325 0.7222222
vt 0.1 0.9166667
vt 0.125 0.9166667
vt 0.15 0.9166667
vt 0 0.6111111
vt 0.35 0.6944444
vt 0.375 0.6944444
vt 0.375 0.7222222
vt 0.35 0.7222222
vt 0.775 0.8888889
vt 0.8 0.8888889
vt 0.8 0.9166667
vt 0.775 0.9166667
vt 0.825 0.8888889
vt 0.825 0.9166667
vt 0.775 0.8611111
vt 0.8 0.8611111
vt 0.825 0.8611111
vt 0.075 0.5555556
vt 0.1 0.5555556

# Normal
vn 0 0 -1

# Mesh description
g Overworld002_mesh_0002

# Faces
f 1/1/1 2/2/1 3/3/1 4/4/1
f 5/2/1 6/5/1 7/6/1 8/3/1
f 9/2/1 10/5/1 11/6/1 12/3/1
f 13/2/1 14/5/1 15/6/1 16/3/1
f 17/2/1 18/5/1 19/6/1 20/3/1
f 21/2/1 22/5/1 23/6/1 24/3/1
f 25/2/1 26/5/1 27/6/1 28/3/1
f 29/2/1 30/5/1 31/6/1 32/3/1
f 33/2/1 34/5/1 35/6/1 36/3/1
f 37/7/1 38/8/1 39/9/1 40/10/1
f 41/11/1 42/7/1 43/10/1 44/12/1
f 45/2/1 46/5/1 47/6/1 48/3/1
f 49/2/1 50/5/1 51/6/1 52/3/1
f 53/2/1 54/5/1 55/6/1 56/3/1
f 57/2/1 58/5/1 59/6/1 60/3/1
f 61/2/1 62/5/1 63/6/1 64/3/1
f 65/2/1 66/5/1 67/6/1 68/3/1
f 69/2/1 70/5/1 71/6/1 72/3/1
f 73/2/1 74/5/1 75/6/1 76/3/1
f 77/5/1 78/13/1 79/14/1 80/6/1
f 81/15/1 82/16/1 83/13/1 84/5/1
f 85/17/1 86/18/1 87/2/1 88/1/1
f 89/15/1 90/16/1 91/13/1 92/5/1
f 93/19/1 94/20/1 95/21/1 96/22/1
f 97/20/1 98/23/1 99/24/1 100/21/1
f 101/23/1 102/25/1 103/26/1 104/24/1
f 105/17/1 106/18/1 107/2/1 108/1/1
f 109/15/1 110/16/1 111/13/1 112/5/1
f 113/19/1 114/20/1 115/21/1 116/22/1
f 117/20/1 118/23/1 119/24/1 120/21/1
f 121/23/1 122/25/1 123/26/1 124/24/1
f 125/27/1 126/28/1 127/29/1 128/30/1
f 129/28/1 130/31/1 131/32/1 132/29/1
f 133/17/1 134/18/1 135/2/1 136/1/1
f 137/15/1 138/16/1 139/13/1 140/5/1
f 141/33/1 142/34/1 143/28/1 144/27/1
f 145/34/1 146/35/1 147/31/1 148/28/1
f 149/17/1 150/18/1 151/2/1 152/1/1
f 153/15/1 154/16/1 155/13/1 156/5/1
f 157/17/1 158/18/1 159/2/1 160/1/1
f 161/15/1 162/16/1 163/13/1 164/5/1
f 165/17/1 166/18/1 167/2/1 168/1/1
f 169/15/1 170/16/1 171/13/1 172/5/1
f 173/32/1 174/36/1 175/37/1 176/38/1
f 177/17/1 178/18/1 179/2/1 180/1/1
f 181/15/1 182/16/1 183/13/1 184/5/1
f 185/32/1 186/36/1 187/37/1 188/38/1
f 189/17/1 190/18/1 191/2/1 192/1/1
f 193/12/1 194/10/1 195/17/1 196/39/1
f 197/12/1 198/10/1 199/17/1 200/39/1
f 201/40/1 202/41/1 203/42/1 204/43/1
f 205/41/1 206/44/1 207/45/1 208/42/1
f 209/36/1 210/46/1 211/47/1 212/37/1
f 213/48/1 214/49/1 215/41/1 216/40/1
f 217/49/1 218/50/1 219/44/1 220/41/1
f 221/39/1 222/17/1 223/1/1 224/51/1
f 225/39/1 226/17/1 227/1/1 228/51/1
f 229/15/1 230/16/1 231/13/1 232/5/1
f 233/52/1 234/53/1 235/54/1 236/55/1
f 237/17/1 238/18/1 239/2/1 240/1/1
f 241/15/1 242/16/1 243/13/1 244/5/1
f 245/17/1 246/18/1 247/2/1 248/1/1
f 249/15/1 250/16/1 251/13/1 252/5/1
f 253/56/1 254/57/1 255/58/1 256/59/1
f 257/57/1 258/60/1 259/61/1 260/58/1
f 261/56/1 262/57/1 263/58/1 264/59/1
f 265/57/1 266/60/1 267/61/1 268/58/1
f 269/17/1 270/18/1 271/2/1 272/1/1
f 273/15/1 274/16/1 275/13/1 276/5/1
f 277/62/1 278/63/1 279/57/1 280/56/1
f 281/63/1 282/64/1 283/60/1 284/57/1
f 285/62/1 286/63/1 287/57/1 288/56/1
f 289/63/1 290/64/1 291/60/1 292/57/1
f 293/17/1 294/18/1 295/2/1 296/1/1
f 297/15/1 298/16/1 299/13/1 300/5/1
f 301/17/1 302/18/1 303/2/1 304/1/1
f 305/15/1 306/16/1 307/13/1 308/5/1
f 309/17/1 310/18/1 311/2/1 312/1/1
f 313/15/1 314/16/1 315/13/1 316/5/1
f 317/17/1 318/18/1 319/2/1 320/1/1
f 321/15/1 322/16/1 323/13/1 324/5/1
f 325/17/1 326/18/1 327/2/1 328/1/1
f 329/10/1 330/9/1 331/18/1 332/17/1
f 333/9/1 334/65/1 335/15/1 336/18/1
f 337/9/1 338/65/1 339/15/1 340/18/1
f 341/9/1 342/65/1 343/15/1 344/18/1
f 345/9/1 346/65/1 347/15/1 348/18/1
f 349/9/1 350/65/1 351/15/1 352/18/1
f 353/9/1 354/65/1 355/15/1 356/18/1
f 357/9/1 358/65/1 359/15/1 360/18/1
f 361/9/1 362/65/1 363/15/1 364/18/1
f 365/7/1 366/8/1 367/9/1 368/10/1
f 369/11/1 370/7/1 371/10/1 372/12/1
f 373/9/1 374/65/1 375/15/1 376/18/1
f 377/9/1 378/65/1 379/15/1 380/18/1
f 381/9/1 382/65/1 383/15/1 384/18/1
f 385/9/1 386/65/1 387/15/1 388/18/1
f 389/9/1 390/65/1 391/15/1 392/18/1
f 393/9/1 394/65/1 395/15/1 396/18/1
f 397/9/1 398/65/1 399/15/1 400/18/1
f 401/9/1 402/65/1 403/15/1 404/18/1
f 405/65/1 406/66/1 407/16/1 408/15/1

